<svg width="91" height="81" viewBox="0 0 91 81" fill="none" xmlns="http://www.w3.org/2000/svg">
<path d="M79.9083 66.9516H80.1926H81.3863H81.4672H82.4698H84.3849H397.651C397.588 68.3059 397.517 69.6559 397.439 71.0016C397.429 71.1704 397.419 71.3391 397.409 71.5078C391.061 178.303 337.88 258.001 283.55 306.897C276.093 313.608 268.615 319.739 261.233 325.28C257.904 327.779 254.556 330.197 251.19 332.537C248.295 334.55 245.387 336.505 242.467 338.403C210.639 359.091 177.48 372.98 144.874 381.406C122.868 387.094 101.114 390.292 80.1926 391.413C77.6203 391.551 75.0606 391.657 72.5145 391.733C72.2774 391.74 72.0404 391.747 71.8036 391.753C68.8459 391.835 65.9068 391.875 62.9879 391.875C60.0658 391.875 57.1268 391.835 54.1723 391.754C13.7756 390.645 -29.4971 381.859 -71.7143 362.868L54.1723 121.261L62.9879 104.342L71.8036 87.4226L72.5145 86.0581L74.7067 81.8508L77.8551 75.8083L79.7661 72.1406M79.9083 66.9516L80.1926 66.9249L81.3085 66.8205L81.3792 66.8139L82.6011 66.6995L84.7919 66.4944L85.3157 66.4453L258.353 50.2453L259.705 50.1187L324.594 44.0437L397.812 37.189C396.038 -12.6751 384.092 -56.6858 366.513 -94.5484C350.319 -129.428 329.345 -159.089 307.139 -183.304C291.88 -199.943 276.04 -214.01 260.769 -225.43C257.973 -227.521 255.162 -229.556 252.338 -231.536L134.718 -33.3247L88.8068 44.0437L88.481 44.5928C89.1792 46.3492 89.5604 48.2041 89.5765 50.1187C89.5768 50.1609 89.577 50.2031 89.577 50.2453C89.577 51.715 89.3607 53.1402 88.9541 54.5066C88.3679 56.4768 87.3863 58.3249 86.0878 60.0077C84.5642 61.9822 82.6043 63.7294 80.3348 65.1797C80.2853 65.2091 80.2377 65.2419 80.1926 65.2777C79.8499 65.5504 79.6569 65.9979 79.9083 66.4453V66.9516ZM79.9083 66.9516C79.9517 67.4151 80.0613 67.9611 80.1926 68.4997C80.3597 69.1845 80.5618 69.8572 80.7078 70.3332C80.7265 70.3941 80.7443 70.4519 80.761 70.506C80.8123 70.6728 80.8531 70.8051 80.8777 70.8918C80.8944 70.9506 80.9036 70.9884 80.9036 71.0016C80.9036 71.0648 80.9391 71.1598 80.9747 71.2547C81.0102 71.3496 81.0458 71.4445 81.0458 71.5078C81.0458 71.8875 80.6192 72.2672 80.1926 72.2672C79.9083 72.2672 79.9083 72.2672 79.7661 72.1406M79.7661 72.1406L78.5516 71.5078L77.5799 71.0016L74.5799 69.4384L73.4231 70.0882L73.3162 70.1483L72.9834 70.3352L72.5145 70.5986L72.1226 70.8188L71.8036 70.9979L71.7971 71.0016L70.8959 71.5078L62.9879 75.9499L54.1723 80.9019L-218.864 234.274C-195.77 270.673 -167.953 299.571 -141.371 320.579L54.1723 100.894L56.8696 97.8639L61.8892 92.2245L62.9879 90.9901L71.8036 81.0862L72.5145 80.2874L73.9601 78.6634L77.1782 75.048L79.7661 72.1406ZM409.935 221.845C434.609 174.168 451.077 116.965 451.077 50.2453C451.077 -94.4762 372.029 -197.875 299.033 -252.743C225.818 -307.774 141.168 -331.125 62.9879 -331.125C-14.1243 -331.125 -98.9287 -308.394 -172.795 -252.949C-247.02 -197.235 -324.959 -93.4938 -324.959 50.1187C-324.959 195.273 -245.467 298.802 -172.224 353.574C-110.918 399.42 -41.7874 423.029 24.6486 429.496C42.9519 432.345 56.7122 433.07 63.1106 433.369C69.7095 433.678 74.8838 433.735 76.8491 433.752C78.0291 433.763 78.9654 433.766 79.4294 433.766C79.6817 433.767 79.8848 433.767 79.9996 433.767L80.1391 433.767H80.1926C133.114 433.767 180.615 422.479 221.666 404.998L243.462 399.892L257.607 387.302C281.761 373.72 303.031 358.165 321.131 342.055C350.14 316.234 385.018 275.965 409.935 221.845ZM48.1051 66.4453H-271.562C-271.801 61.1129 -271.923 55.7128 -271.923 50.2453C-271.923 50.2031 -271.923 50.1609 -271.923 50.1187C-271.922 48.0837 -271.905 46.0587 -271.872 44.0437C-271.056 -5.02227 -260.601 -48.1271 -244.643 -85.3362C-221.132 -133.628 -189.882 -170.28 -163.058 -194.847L43.2509 36.932C40.8159 38.9669 38.9437 41.3825 37.8033 44.0437C36.9828 45.9584 36.5411 48.0002 36.5411 50.1187C36.5411 50.161 36.5413 50.2032 36.5416 50.2453C36.5982 56.9705 41.1601 62.9103 48.1051 66.4453ZM71.8036 47.2078C70.5595 47.2078 69.482 46.664 68.8488 45.8236L68.5066 45.2469C68.3401 44.8775 68.2489 44.4717 68.2489 44.0437C68.2489 42.2719 69.813 40.8797 71.8036 40.8797C72.0477 40.8797 72.2853 40.9006 72.5145 40.9406C74.1543 41.2268 75.3583 42.4891 75.3583 44.0437C75.3583 45.6105 74.2465 46.8804 72.5145 47.1534C72.2878 47.1892 72.0504 47.2078 71.8036 47.2078ZM62.9879 30.375C62.8749 30.375 62.7621 30.3755 62.6494 30.3765L54.1723 -5.81317L-9.57157 -277.945C10.5387 -283.119 31.8155 -286.719 54.1723 -288.311C57.0925 -288.519 60.0311 -288.693 62.9879 -288.831C65.9088 -288.968 68.8474 -289.07 71.8036 -289.138C72.0404 -289.143 72.2774 -289.148 72.5145 -289.153C75.0609 -289.206 77.6203 -289.233 80.1926 -289.233C76.6722 -289.233 86.5443 -289.326 96.9415 -288.839C100.379 -288.678 105.975 -288.393 113.284 -287.714C153.893 -281.371 196.055 -267.005 236.143 -242.211L87.6411 42.8005C86.0179 39.8059 83.4447 37.1656 80.1926 35.0977C77.9311 33.6596 75.3413 32.4984 72.5145 31.6872C72.2792 31.6197 72.0422 31.5546 71.8036 31.4919C69.0499 30.769 66.0844 30.375 62.9879 30.375Z" fill="white" stroke="#69AC80" stroke-width="723"/>
</svg>
